<svg width="281" height="192" viewBox="0 0 281 192" fill="none" xmlns="http://www.w3.org/2000/svg">
<path d="M91.104 125.558C91.104 133.41 87.906 139.78 81.51 144.668C75.114 149.556 65.858 152 53.742 152H6.24C6.032 152 5.876 151.948 5.772 151.844C5.668 151.74 5.616 151.636 5.616 151.532C5.616 151.272 5.876 151.116 6.396 151.064L13.65 149.972C14.586 149.816 15.262 149.556 15.678 149.192C16.146 148.776 16.38 148.126 16.38 147.242V46.856C16.38 46.232 16.172 45.764 15.756 45.452C15.392 45.14 14.69 44.932 13.65 44.828L6.396 43.736C5.876 43.684 5.616 43.528 5.616 43.268C5.616 43.112 5.668 43.008 5.772 42.956C5.876 42.852 6.032 42.8 6.24 42.8H41.652C51.012 42.8 58.89 44.1 65.286 46.7C71.682 49.248 76.544 52.81 79.872 57.386C83.2 61.962 84.864 67.24 84.864 73.22C84.864 78.16 83.538 82.632 80.886 86.636C78.234 90.588 74.412 93.734 69.42 96.074C64.48 98.414 58.5 99.584 51.48 99.584L53.898 99.272C61.23 99.272 67.678 100.416 73.242 102.704C78.858 104.992 83.226 108.138 86.346 112.142C89.518 116.094 91.104 120.566 91.104 125.558ZM47.424 100.208H30.108V98.96H48.906C53.534 98.96 57.434 97.946 60.606 95.918C63.83 93.838 66.274 90.926 67.938 87.182C69.602 83.438 70.434 78.992 70.434 73.844C70.434 67.916 69.212 62.742 66.768 58.322C64.324 53.85 60.918 50.366 56.55 47.87C52.182 45.374 47.138 44.126 41.418 44.126H32.136V147.632C32.136 148.724 32.474 149.504 33.15 149.972C33.878 150.44 34.918 150.674 36.27 150.674H50.232C55.484 150.674 59.956 149.608 63.648 147.476C67.392 145.292 70.252 142.302 72.228 138.506C74.204 134.71 75.192 130.342 75.192 125.402C75.192 117.862 72.774 111.778 67.938 107.15C63.154 102.522 56.316 100.208 47.424 100.208ZM121.171 38.042V148.022C121.171 148.646 121.327 149.14 121.639 149.504C121.951 149.868 122.419 150.128 123.043 150.284L127.957 150.986C128.269 151.038 128.477 151.116 128.581 151.22C128.685 151.272 128.737 151.376 128.737 151.532C128.737 151.688 128.685 151.818 128.581 151.922C128.477 151.974 128.321 152 128.113 152H100.111C100.007 152 99.9026 151.974 99.7986 151.922C99.6946 151.818 99.6426 151.688 99.6426 151.532C99.6426 151.428 99.7206 151.324 99.8766 151.22C100.033 151.064 100.293 150.96 100.657 150.908L105.493 150.284C106.169 150.128 106.637 149.868 106.897 149.504C107.209 149.14 107.365 148.672 107.365 148.1V44.594C107.365 44.334 107.287 44.126 107.131 43.97C107.027 43.814 106.793 43.736 106.429 43.736H100.345C100.189 43.736 100.059 43.684 99.9546 43.58C99.8506 43.476 99.7986 43.372 99.7986 43.268C99.7986 43.112 99.8506 43.008 99.9546 42.956C100.059 42.852 100.215 42.774 100.423 42.722L119.143 37.496C119.559 37.34 119.845 37.262 120.001 37.262C120.157 37.21 120.313 37.184 120.469 37.184C120.729 37.184 120.911 37.288 121.015 37.496C121.119 37.652 121.171 37.834 121.171 38.042ZM169.002 82.736C175.554 82.736 181.378 84.244 186.474 87.26C191.57 90.276 195.6 94.462 198.564 99.818C201.528 105.174 203.01 111.362 203.01 118.382C203.01 125.35 201.502 131.486 198.486 136.79C195.47 142.042 191.362 146.15 186.162 149.114C180.962 152.078 174.982 153.56 168.222 153.56C161.67 153.56 155.846 152.078 150.75 149.114C145.706 146.15 141.728 142.042 138.816 136.79C135.956 131.486 134.526 125.35 134.526 118.382C134.526 111.414 135.982 105.252 138.894 99.896C141.806 94.54 145.836 90.354 150.984 87.338C156.184 84.27 162.19 82.736 169.002 82.736ZM172.59 152.39C176.438 152.078 179.662 150.492 182.262 147.632C184.914 144.72 186.786 140.638 187.878 135.386C188.97 130.082 189.126 123.712 188.346 116.276C187.566 108.788 186.11 102.574 183.978 97.634C181.846 92.694 179.168 89.08 175.944 86.792C172.72 84.504 169.054 83.516 164.946 83.828C160.89 84.192 157.536 85.856 154.884 88.82C152.284 91.784 150.49 95.892 149.502 101.144C148.566 106.396 148.462 112.688 149.19 120.02C149.97 127.248 151.452 133.358 153.636 138.35C155.82 143.29 158.524 146.956 161.748 149.348C165.024 151.688 168.638 152.702 172.59 152.39ZM254.08 151.376C247.632 149.452 242.822 147.866 239.65 146.618C236.53 145.318 234.45 144.148 233.41 143.108C232.422 142.068 231.928 140.924 231.928 139.676C231.928 138.428 232.396 137.336 233.332 136.4C234.32 135.412 235.516 134.632 236.92 134.06L237.076 133.436C233.072 134.32 229.874 135.386 227.482 136.634C225.142 137.83 223.452 139.234 222.412 140.846C221.424 142.406 220.93 144.174 220.93 146.15C220.93 148.334 221.684 150.258 223.192 151.922C224.7 153.534 227.274 155.068 230.914 156.524C234.554 157.98 239.624 159.592 246.124 161.36C251.48 162.712 255.614 164.064 258.526 165.416C261.438 166.82 263.44 168.328 264.532 169.94C265.676 171.604 266.248 173.424 266.248 175.4C266.248 178.364 265.442 180.86 263.83 182.888C262.218 184.916 259.8 186.45 256.576 187.49C253.352 188.582 249.348 189.128 244.564 189.128C235.516 189.128 228.834 187.308 224.518 183.668C220.202 180.028 218.044 175.244 218.044 169.316C218.044 166.196 219.37 163.466 222.022 161.126C224.726 158.786 228.678 157.174 233.878 156.29L233.722 155.432C224.622 156.784 218.122 158.942 214.222 161.906C210.374 164.922 208.45 168.562 208.45 172.826C208.45 176.154 209.698 179.144 212.194 181.796C214.69 184.5 218.538 186.606 223.738 188.114C228.99 189.622 235.672 190.376 243.784 190.376C254.392 190.376 262.608 188.426 268.432 184.526C274.256 180.678 277.168 175.712 277.168 169.628C277.168 166.612 276.518 164.012 275.218 161.828C273.918 159.644 271.604 157.72 268.276 156.056C264.948 154.392 260.216 152.832 254.08 151.376ZM254.704 86.87H255.718C256.914 84.946 258.11 83.386 259.306 82.19C260.554 80.994 261.88 80.396 263.284 80.396C264.324 80.396 265.234 80.838 266.014 81.722C266.794 82.554 267.574 83.542 268.354 84.686C269.134 85.778 269.992 86.74 270.928 87.572C271.864 88.404 273.008 88.82 274.36 88.82C276.284 88.82 277.74 88.248 278.728 87.104C279.716 85.96 280.21 84.426 280.21 82.502C280.21 79.954 279.326 77.848 277.558 76.184C275.79 74.52 273.45 73.688 270.538 73.688C267.21 73.688 264.35 74.806 261.958 77.042C259.566 79.278 257.356 82.164 255.328 85.7L254.704 86.87ZM271.786 108.242C271.786 103.562 270.564 99.272 268.12 95.372C265.728 91.472 262.348 88.378 257.98 86.09C253.664 83.75 248.568 82.58 242.692 82.58C236.4 82.58 230.966 83.776 226.39 86.168C221.814 88.56 218.278 91.81 215.782 95.918C213.338 99.974 212.116 104.576 212.116 109.724C212.116 114.352 213.364 118.564 215.86 122.36C218.356 126.156 221.84 129.198 226.312 131.486C230.784 133.722 235.932 134.84 241.756 134.84C247.424 134.84 252.52 133.696 257.044 131.408C261.568 129.12 265.156 125.974 267.808 121.97C270.46 117.966 271.786 113.39 271.786 108.242ZM239.26 84.062C244.46 83.958 248.724 86.272 252.052 91.004C255.38 95.736 257.278 102.028 257.746 109.88C258.214 116.848 257.148 122.464 254.548 126.728C252 130.94 248.542 133.124 244.174 133.28C240.898 133.332 237.908 132.292 235.204 130.16C232.552 127.976 230.394 124.934 228.73 121.034C227.066 117.134 226.078 112.636 225.766 107.54C225.506 102.964 225.922 98.934 227.014 95.45C228.106 91.966 229.718 89.236 231.85 87.26C233.982 85.232 236.452 84.166 239.26 84.062Z" fill="#151319"/>
<path d="M81.2098 173V163.116H83.4078V173H81.2098ZM82.9038 173V171.068H87.7898V173H82.9038ZM90.4541 173V163.256H92.6521V173H90.4541ZM87.3601 165.034V163.116H95.7461V165.034H87.3601ZM104.111 173.154C103.373 173.154 102.687 173.028 102.053 172.776C101.427 172.515 100.877 172.151 100.401 171.684C99.9341 171.217 99.5701 170.676 99.3088 170.06C99.0474 169.435 98.9168 168.763 98.9168 168.044C98.9168 167.325 99.0474 166.658 99.3088 166.042C99.5701 165.417 99.9341 164.875 100.401 164.418C100.867 163.961 101.413 163.606 102.039 163.354C102.673 163.093 103.359 162.962 104.097 162.962C104.881 162.962 105.576 163.088 106.183 163.34C106.799 163.592 107.335 163.937 107.793 164.376L106.323 165.86C106.061 165.58 105.744 165.361 105.371 165.202C105.007 165.043 104.582 164.964 104.097 164.964C103.667 164.964 103.271 165.039 102.907 165.188C102.552 165.328 102.244 165.533 101.983 165.804C101.731 166.075 101.53 166.401 101.381 166.784C101.241 167.167 101.171 167.587 101.171 168.044C101.171 168.511 101.241 168.935 101.381 169.318C101.53 169.701 101.731 170.027 101.983 170.298C102.244 170.569 102.552 170.779 102.907 170.928C103.271 171.077 103.667 171.152 104.097 171.152C104.601 171.152 105.039 171.073 105.413 170.914C105.786 170.755 106.108 170.536 106.379 170.256L107.863 171.74C107.387 172.179 106.841 172.524 106.225 172.776C105.618 173.028 104.913 173.154 104.111 173.154ZM110.557 173V171.068H113.007C113.604 171.068 114.127 170.951 114.575 170.718C115.023 170.475 115.368 170.125 115.611 169.668C115.854 169.211 115.975 168.669 115.975 168.044C115.975 167.419 115.849 166.882 115.597 166.434C115.354 165.986 115.009 165.641 114.561 165.398C114.122 165.155 113.604 165.034 113.007 165.034H110.487V163.116H113.035C113.782 163.116 114.468 163.237 115.093 163.48C115.728 163.713 116.278 164.054 116.745 164.502C117.221 164.941 117.585 165.463 117.837 166.07C118.098 166.667 118.229 167.33 118.229 168.058C118.229 168.777 118.098 169.439 117.837 170.046C117.585 170.653 117.226 171.175 116.759 171.614C116.292 172.053 115.742 172.393 115.107 172.636C114.482 172.879 113.8 173 113.063 173H110.557ZM109.073 173V163.116H111.271V173H109.073ZM121.308 168.926V167.302H123.394C123.832 167.302 124.168 167.19 124.402 166.966C124.644 166.742 124.766 166.439 124.766 166.056C124.766 165.701 124.649 165.407 124.416 165.174C124.182 164.941 123.846 164.824 123.408 164.824H121.308V163.116H123.66C124.313 163.116 124.887 163.242 125.382 163.494C125.876 163.737 126.264 164.077 126.544 164.516C126.824 164.955 126.964 165.459 126.964 166.028C126.964 166.607 126.824 167.115 126.544 167.554C126.264 167.983 125.872 168.319 125.368 168.562C124.864 168.805 124.271 168.926 123.59 168.926H121.308ZM119.628 173V163.116H121.826V173H119.628ZM125.004 173L121.924 168.744L123.94 168.198L127.608 173H125.004Z" fill="#00D0DD"/>
<path d="M133.107 173V171.292H135.431C135.86 171.292 136.196 171.166 136.439 170.914C136.681 170.662 136.803 170.354 136.803 169.99C136.803 169.738 136.747 169.514 136.635 169.318C136.523 169.122 136.364 168.968 136.159 168.856C135.963 168.744 135.72 168.688 135.431 168.688H133.107V167.022H135.249C135.613 167.022 135.907 166.933 136.131 166.756C136.355 166.569 136.467 166.289 136.467 165.916C136.467 165.552 136.355 165.281 136.131 165.104C135.907 164.917 135.613 164.824 135.249 164.824H133.107V163.116H135.669C136.303 163.116 136.84 163.233 137.279 163.466C137.727 163.699 138.067 164.012 138.301 164.404C138.534 164.796 138.651 165.23 138.651 165.706C138.651 166.313 138.455 166.826 138.063 167.246C137.671 167.666 137.092 167.955 136.327 168.114L136.383 167.372C137.213 167.531 137.853 167.853 138.301 168.338C138.758 168.823 138.987 169.421 138.987 170.13C138.987 170.671 138.851 171.161 138.581 171.6C138.319 172.029 137.937 172.37 137.433 172.622C136.938 172.874 136.341 173 135.641 173H133.107ZM131.427 173V163.116H133.597V173H131.427ZM140.395 173V163.116H142.593V173H140.395ZM146.555 173.154C145.93 173.154 145.384 173.042 144.917 172.818C144.46 172.585 144.068 172.263 143.741 171.852L145.211 170.438C145.379 170.671 145.575 170.849 145.799 170.97C146.032 171.091 146.294 171.152 146.583 171.152C146.863 171.152 147.106 171.096 147.311 170.984C147.516 170.863 147.68 170.695 147.801 170.48C147.922 170.256 147.983 169.981 147.983 169.654V163.116H150.195V169.528C150.195 170.265 150.046 170.905 149.747 171.446C149.448 171.987 149.028 172.407 148.487 172.706C147.946 173.005 147.302 173.154 146.555 173.154ZM150.837 173L154.757 163.116H156.745L160.623 173H158.299L155.331 164.796H156.129L153.119 173H150.837ZM153.063 171.208V169.416H158.453V171.208H153.063ZM163.449 169.318L159.641 163.116H162.189L165.115 168.128H163.477L166.403 163.116H168.895L165.059 169.318H163.449ZM163.183 173V168.31H165.381V173H163.183ZM172.292 173V163.116H173.832L174.49 165.09V173H172.292ZM179.11 173L173.286 165.538L173.832 163.116L179.656 170.578L179.11 173ZM179.11 173L178.522 171.026V163.116H180.72V173H179.11ZM181.886 173L185.806 163.116H187.794L191.672 173H189.348L186.38 164.796H187.178L184.168 173H181.886ZM184.112 171.208V169.416H189.502V171.208H184.112ZM192.718 173V163.116H194.916V173H192.718ZM198.499 168.926V167.302H200.585C201.024 167.302 201.36 167.19 201.593 166.966C201.836 166.742 201.957 166.439 201.957 166.056C201.957 165.701 201.841 165.407 201.607 165.174C201.374 164.941 201.038 164.824 200.599 164.824H198.499V163.116H200.851C201.505 163.116 202.079 163.242 202.573 163.494C203.068 163.737 203.455 164.077 203.735 164.516C204.015 164.955 204.155 165.459 204.155 166.028C204.155 166.607 204.015 167.115 203.735 167.554C203.455 167.983 203.063 168.319 202.559 168.562C202.055 168.805 201.463 168.926 200.781 168.926H198.499ZM196.819 173V163.116H199.017V173H196.819ZM202.195 173L199.115 168.744L201.131 168.198L204.799 173H202.195Z" fill="#151319"/>
</svg>
